<svg width="34" height="39" viewBox="0 0 34 39" fill="none" xmlns="http://www.w3.org/2000/svg">
<path d="M33 37.3005V33.3005C33 31.1787 32.1571 29.1439 30.6569 27.6436C29.1566 26.1433 27.1217 25.3005 25 25.3005H23C22.4696 25.3005 21.9609 25.0898 21.5858 24.7147C21.2107 24.3396 21 23.8309 21 23.3005V13.3005C21 12.2396 20.5786 11.2222 19.8284 10.472C19.0783 9.7219 18.0609 9.30048 17 9.30048C15.9391 9.30048 14.9217 9.7219 14.1716 10.472C13.4214 11.2222 13 12.2396 13 13.3005V31.3005L8.2 24.9005C7.82741 24.4037 7.34428 24.0005 6.78885 23.7228C6.23343 23.4451 5.62098 23.3005 5 23.3005H4.132C2.402 23.3005 1 24.7025 1 26.4325C1 27.0005 1.154 27.5585 1.446 28.0445L7 37.3005M17 3.30048V1.30048V3.30048ZM29 15.3005H31H29ZM3 15.3005H5H3ZM7.686 5.98648L6.272 4.57248L7.686 5.98648ZM26.314 5.98648L27.728 4.57248L26.314 5.98648Z" fill="#4CAF4F"/>
<path d="M33 37.3005V33.3005C33 31.1787 32.1571 29.1439 30.6569 27.6436C29.1566 26.1433 27.1217 25.3005 25 25.3005H23C22.4696 25.3005 21.9609 25.0898 21.5858 24.7147C21.2107 24.3396 21 23.8309 21 23.3005V13.3005C21 12.2396 20.5786 11.2222 19.8284 10.472C19.0783 9.7219 18.0609 9.30048 17 9.30048V9.30048C15.9391 9.30048 14.9217 9.7219 14.1716 10.472C13.4214 11.2222 13 12.2396 13 13.3005V31.3005L8.2 24.9005C7.82741 24.4037 7.34428 24.0005 6.78885 23.7228C6.23343 23.4451 5.62098 23.3005 5 23.3005H4.132C2.402 23.3005 1 24.7025 1 26.4325C1 27.0005 1.154 27.5585 1.446 28.0445L7 37.3005M17 3.30048V1.30048M29 15.3005H31M3 15.3005H5M7.686 5.98648L6.272 4.57248M26.314 5.98648L27.728 4.57248" stroke="#4CAF4F" stroke-width="2" stroke-linecap="round" stroke-linejoin="round"/>
</svg>
